<?xml version="1.0" encoding="UTF-8" standalone="no"?>
<svg xmlns="http://www.w3.org/2000/svg" viewBox="0 0 512 512" width="512" height="512">
  <!-- Coffee bottle -->
  <path d="M320 96V64h-32V32h-64v32h-32v32h-32v384h192V96z" fill="#FFFFFF" stroke="#2196F3" stroke-width="16"/>
  
  <!-- Coffee splash -->
  <path d="M160 96v64c0 32 32 64 96 64s96-32 96-64V96H160z" fill="#E3F2FD"/>
  
  <!-- Coffee drops -->
  <circle cx="200" cy="200" r="16" fill="#BBDEFB"/>
  <circle cx="240" cy="240" r="12" fill="#BBDEFB"/>
  <circle cx="280" cy="180" r="14" fill="#BBDEFB"/>
  
  <!-- Cow pattern spots -->
  <circle cx="220" cy="320" r="24" fill="#2196F3" opacity="0.3"/>
  <circle cx="280" cy="380" r="28" fill="#2196F3" opacity="0.3"/>
  <circle cx="180" cy="400" r="20" fill="#2196F3" opacity="0.3"/>
  <circle cx="300" cy="280" r="18" fill="#2196F3" opacity="0.3"/>
  
  <!-- Cooperative symbol - hands joining -->
  <path d="M256 64c-16-16-32-24-48-24s-32 8-48 24c16 0 32-8 48-8s32 8 48 8z" fill="#2196F3"/>
</svg>
